<svg xmlns="http://www.w3.org/2000/svg" viewBox="0 0 1200 800"><defs><radialGradient id="p" cx="32%" cy="26%" r="74%"><stop offset="0%" stop-color="#fff6c8"/><stop offset="18%" stop-color="#49a6ff"/><stop offset="62%" stop-color="#06172e"/><stop offset="100%" stop-color="#02040a"/></radialGradient><filter id="glow"><feGaussianBlur stdDeviation="10" result="b"/><feMerge><feMergeNode in="b"/><feMergeNode in="SourceGraphic"/></feMerge></filter><linearGradient id="gold" x1="0" x2="1"><stop offset="0" stop-color="#271705"/><stop offset=".5" stop-color="#f2c14e"/><stop offset="1" stop-color="#271705"/></linearGradient></defs><rect width="1200" height="800" fill="#02040a"/><g opacity=".45"><circle cx="90" cy="70" r="2" fill="#fff"/><circle cx="1030" cy="110" r="2" fill="#f2c14e"/><circle cx="970" cy="700" r="1.5" fill="#fff"/><circle cx="240" cy="640" r="1.3" fill="#fff"/><circle cx="720" cy="55" r="2" fill="#55a7ff"/></g><path d="M60 620 C270 500 390 690 600 570 C760 480 890 530 1130 410" stroke="#f2c14e" stroke-opacity=".12" stroke-width="2" fill="none"/><ellipse cx="500" cy="390" rx="350" ry="82" fill="none" stroke="url(#gold)" stroke-width="32" transform="rotate(-13 500 390)" opacity=".72"/><circle cx="500" cy="370" r="255" fill="url(#p)" filter="url(#glow)"/><path d="M300 315 C430 380 570 260 705 335" stroke="#ffffff" stroke-opacity=".10" stroke-width="22" fill="none"/><path d="M320 500 C450 555 565 460 710 505" stroke="#f2c14e" stroke-opacity=".16" stroke-width="17" fill="none"/><text x="820" y="250" fill="#f2c14e" font-size="32" font-family="Arial" letter-spacing="5">RARE</text><text x="820" y="310" fill="#edf4ff" font-size="44" font-weight="700" font-family="Arial">KMT-2022-BLG-1818L c #48</text><text x="820" y="370" fill="#aab9d6" font-size="25" font-family="Arial">Cold Jovian</text><text x="820" y="420" fill="#aab9d6" font-size="24" font-family="Arial">Moons: 2 · 1-Star System</text><text x="820" y="470" fill="#aab9d6" font-size="24" font-family="Arial">Discovery: Microlensing · 2026.0</text><rect x="820" y="535" width="240" height="54" rx="12" fill="none" stroke="#f2c14e" stroke-width="2"/><text x="940" y="570" text-anchor="middle" fill="#f2c14e" font-size="20" font-family="Arial" letter-spacing="2">VIEW DETAILS</text></svg>